<svg id="visual" viewBox="0 0 1440 600" width="1440" height="600" xmlns="http://www.w3.org/2000/svg" xmlns:xlink="http://www.w3.org/1999/xlink" version="1.1"><rect x="0" y="0" width="1440" height="600" fill="#F9FAFF"></rect><path d="M0 83L34.3 82.2C68.7 81.3 137.3 79.7 205.8 78C274.3 76.3 342.7 74.7 411.2 75.3C479.7 76 548.3 79 617 79.7C685.7 80.3 754.3 78.7 823 76.3C891.7 74 960.3 71 1028.8 69.5C1097.3 68 1165.7 68 1234.2 68.8C1302.7 69.7 1371.3 71.3 1405.7 72.2L1440 73L1440 0L1405.7 0C1371.3 0 1302.7 0 1234.2 0C1165.7 0 1097.3 0 1028.8 0C960.3 0 891.7 0 823 0C754.3 0 685.7 0 617 0C548.3 0 479.7 0 411.2 0C342.7 0 274.3 0 205.8 0C137.3 0 68.7 0 34.3 0L0 0Z" fill="#f9faff"></path><path d="M0 74L34.3 71C68.7 68 137.3 62 205.8 58C274.3 54 342.7 52 411.2 49.5C479.7 47 548.3 44 617 43C685.7 42 754.3 43 823 43.8C891.7 44.7 960.3 45.3 1028.8 49.2C1097.3 53 1165.7 60 1234.2 63.2C1302.7 66.3 1371.3 65.7 1405.7 65.3L1440 65L1440 0L1405.7 0C1371.3 0 1302.7 0 1234.2 0C1165.7 0 1097.3 0 1028.8 0C960.3 0 891.7 0 823 0C754.3 0 685.7 0 617 0C548.3 0 479.7 0 411.2 0C342.7 0 274.3 0 205.8 0C137.3 0 68.7 0 34.3 0L0 0Z" fill="#c7cbd7"></path><path d="M0 40L34.3 41.8C68.7 43.7 137.3 47.3 205.8 44.5C274.3 41.7 342.7 32.3 411.2 27.7C479.7 23 548.3 23 617 26.8C685.7 30.7 754.3 38.3 823 39.7C891.7 41 960.3 36 1028.8 36C1097.3 36 1165.7 41 1234.2 42.2C1302.7 43.3 1371.3 40.7 1405.7 39.3L1440 38L1440 0L1405.7 0C1371.3 0 1302.7 0 1234.2 0C1165.7 0 1097.3 0 1028.8 0C960.3 0 891.7 0 823 0C754.3 0 685.7 0 617 0C548.3 0 479.7 0 411.2 0C342.7 0 274.3 0 205.8 0C137.3 0 68.7 0 34.3 0L0 0Z" fill="#959eb0"></path><path d="M0 25L34.3 23.2C68.7 21.3 137.3 17.7 205.8 18.3C274.3 19 342.7 24 411.2 26.7C479.7 29.3 548.3 29.7 617 30.5C685.7 31.3 754.3 32.7 823 30.7C891.7 28.7 960.3 23.3 1028.8 22.3C1097.3 21.3 1165.7 24.7 1234.2 27.5C1302.7 30.3 1371.3 32.7 1405.7 33.8L1440 35L1440 0L1405.7 0C1371.3 0 1302.7 0 1234.2 0C1165.7 0 1097.3 0 1028.8 0C960.3 0 891.7 0 823 0C754.3 0 685.7 0 617 0C548.3 0 479.7 0 411.2 0C342.7 0 274.3 0 205.8 0C137.3 0 68.7 0 34.3 0L0 0Z" fill="#64748b"></path></svg>